<?xml version="1.0" encoding="UTF-8" standalone="no"?>
<!-- Created with Inkscape (http://www.inkscape.org/) -->

<svg
   width="79.295273mm"
   height="32.598431mm"
   viewBox="0 0 79.295273 32.598431"
   version="1.1"
   id="svg714"
   inkscape:version="1.4.2 (ebf0e940d0, 2025-05-08)"
   sodipodi:docname="separator.svg"
   xmlns:inkscape="http://www.inkscape.org/namespaces/inkscape"
   xmlns:sodipodi="http://sodipodi.sourceforge.net/DTD/sodipodi-0.dtd"
   xmlns="http://www.w3.org/2000/svg"
   xmlns:svg="http://www.w3.org/2000/svg">
  <sodipodi:namedview
     id="namedview716"
     pagecolor="#ffffff"
     bordercolor="#000000"
     borderopacity="0.25"
     inkscape:showpageshadow="2"
     inkscape:pageopacity="0.0"
     inkscape:pagecheckerboard="0"
     inkscape:deskcolor="#d1d1d1"
     inkscape:document-units="mm"
     showgrid="false"
     inkscape:zoom="1.589166"
     inkscape:cx="62.926089"
     inkscape:cy="214.26333"
     inkscape:window-width="2256"
     inkscape:window-height="1435"
     inkscape:window-x="0"
     inkscape:window-y="0"
     inkscape:window-maximized="1"
     inkscape:current-layer="layer1" />
  <defs
     id="defs711" />
  <g
     inkscape:label="Ciseal 1"
     inkscape:groupmode="layer"
     id="layer1"
     transform="translate(746.91035,426.56193)">
    <g
       id="g2">
      <path
         d="m -704.99753,-410.91447 -1.71062,-0.0222 -8.63318,-8.12095 c 1.08197,-1.74695 0.76624,-4.13455 -0.86924,-5.67337 -1.8542,-1.74378 -8.24442,-1.76283 -8.24442,-1.76283 0,0 0.40922,6.37681 2.26307,8.12094 1.63583,1.53882 4.03825,1.70815 5.71606,0.52141 l 7.35577,6.91973 -10.15683,0.0212 -8.73336,-8.21514 c 1.08197,-1.74695 0.76623,-4.13455 -0.86925,-5.67337 -1.8542,-1.74378 -8.24441,-1.76283 -8.24441,-1.76283 0,0 0.40922,6.37717 2.26307,8.12095 1.63583,1.53881 4.03824,1.70815 5.71605,0.5214 l 7.45632,7.01428 -13.82572,0.0289 c -0.49177,-2.07116 -2.37984,-3.6516 -4.56847,-3.67242 -2.48038,-0.0236 -6.82766,4.41396 -6.82766,4.41396 0,0 4.74945,4.52367 7.22983,4.5473 2.18898,0.0208 3.93664,-1.52505 4.2425,-3.5888 l 13.94531,-0.0293 -6.16127,6.54967 c -1.81433,-1.17511 -4.19594,-0.9899 -5.65326,0.55915 -1.65171,1.75578 -1.32362,8.13329 -1.32362,8.13329 0,0 6.38563,-0.0617 8.03733,-1.81751 1.45733,-1.54905 1.49684,-3.9377 0.21343,-5.6769 l 7.29298,-7.75264 10.13178,-0.0212 -6.04238,6.42302 c -1.81434,-1.17475 -4.19594,-0.98989 -5.65327,0.55951 -1.6517,1.75578 -1.32362,8.13294 -1.32362,8.13294 0,0 6.38563,-0.0617 8.03734,-1.81716 1.45732,-1.5494 1.49648,-3.9377 0.21343,-5.6769 l 7.17409,-7.62635 1.62842,0.0222 z"
         style="fill:#c6bd76;fill-opacity:1;fill-rule:nonzero;stroke:none;stroke-width:0.352778"
         id="path509"
         clip-path="none" />
      <path
         d="m -709.5279,-410.91447 1.71062,-0.0222 8.63318,-8.12095 c -1.08197,-1.74695 -0.76624,-4.13455 0.86924,-5.67337 1.8542,-1.74378 8.24442,-1.76283 8.24442,-1.76283 0,0 -0.40922,6.37681 -2.26307,8.12094 -1.63583,1.53882 -4.03825,1.70815 -5.71606,0.52141 l -7.35577,6.91973 10.15683,0.0212 8.73336,-8.21514 c -1.08197,-1.74695 -0.76658,-4.13455 0.86925,-5.67337 1.8542,-1.74378 8.24441,-1.76283 8.24441,-1.76283 0,0 -0.40922,6.37717 -2.26307,8.12095 -1.63583,1.53881 -4.03824,1.70815 -5.71605,0.5214 l -7.45632,7.01428 13.82572,0.0289 c 0.49177,-2.07116 2.37984,-3.6516 4.56847,-3.67242 2.48038,-0.0236 6.82766,4.41396 6.82766,4.41396 0,0 -4.74945,4.52402 -7.22983,4.5473 -2.18898,0.0208 -3.93664,-1.52505 -4.2425,-3.5888 l -13.94531,-0.0293 6.16127,6.54967 c 1.81433,-1.17511 4.19594,-0.9899 5.65326,0.55915 1.65171,1.75578 1.32362,8.13329 1.32362,8.13329 0,0 -6.38563,-0.0617 -8.03733,-1.81751 -1.45733,-1.54905 -1.49684,-3.93735 -0.21343,-5.6769 l -7.29298,-7.75264 -10.13178,-0.0212 6.04238,6.42302 c 1.81434,-1.17475 4.19594,-0.98989 5.65327,0.55951 1.6517,1.75578 1.32362,8.13294 1.32362,8.13294 0,0 -6.38563,-0.0617 -8.03734,-1.81716 -1.45732,-1.5494 -1.49648,-3.9377 -0.21343,-5.6769 l -7.17409,-7.62635 -1.62842,0.0222 z"
         style="fill:#c6bd76;fill-opacity:1;fill-rule:nonzero;stroke:none;stroke-width:0.352778"
         id="path513"
         clip-path="none" />
    </g>
  </g>
</svg>
